<svg width="10" height="16" viewBox="0 0 10 16" fill="none" xmlns="http://www.w3.org/2000/svg">
<path d="M9.65669 0.313127C9.54859 0.21387 9.42017 0.135121 9.27878 0.0813893C9.1374 0.0276578 8.98583 0 8.83276 0C8.67968 0 8.52812 0.0276578 8.38673 0.0813893C8.24535 0.135121 8.11693 0.21387 8.00883 0.313127L0.272264 7.39876C0.185957 7.47764 0.117485 7.57134 0.0707664 7.67449C0.0240478 7.77764 0 7.88822 0 7.99989C0 8.11156 0.0240478 8.22213 0.0707664 8.32528C0.117485 8.42843 0.185957 8.52213 0.272264 8.60101L8.00883 15.6866C8.46501 16.1045 9.2005 16.1045 9.65669 15.6866C10.1129 15.2688 10.1129 14.5952 9.65669 14.1774L2.91629 7.99562L9.666 1.81381C10.1129 1.40454 10.1129 0.722406 9.65669 0.313127Z" fill="white"/>
</svg>
