<svg width="40" height="40" viewBox="0 0 40 40" fill="none" xmlns="http://www.w3.org/2000/svg">
<g clip-path="url(#clip0_6_149)">
<path d="M24.2844 34.1033H21.6314V9.7895H32.8123L28.0763 17.3045C27.8361 17.6856 27.9503 18.1894 28.3315 18.4295C28.4666 18.5147 28.6169 18.5551 28.7656 18.5551C29.0364 18.5551 29.3013 18.4203 29.4563 18.1745L33.5637 11.6567L37.6709 18.1745C37.9112 18.5555 38.415 18.6698 38.796 18.4295C39.177 18.1894 39.2911 17.6856 39.051 17.3045L34.3152 9.7895H34.375C35.0732 9.7895 35.6393 9.22341 35.6393 8.52524C35.6393 7.82715 35.0733 7.26106 34.375 7.26106H25.0745C24.5493 6.49706 23.7742 5.91863 22.8667 5.64402C22.737 4.17437 21.5035 3.02176 20.0001 3.02176C18.4966 3.02176 17.2631 4.17437 17.1334 5.64402C16.2259 5.91863 15.4508 6.49706 14.9256 7.26106H5.62512C4.92686 7.26106 4.36077 7.82715 4.36077 8.52524C4.36077 9.22341 4.92677 9.7895 5.62512 9.7895H5.68495L0.948946 17.3045C0.708772 17.6856 0.823033 18.1894 1.20408 18.4295C1.33921 18.5147 1.48956 18.5551 1.63816 18.5551C1.90895 18.5551 2.17399 18.4203 2.32903 18.1745L6.43642 11.6567L10.5437 18.1745C10.7839 18.5555 11.2876 18.6698 11.6687 18.4295C12.0498 18.1894 12.164 17.6856 11.9239 17.3045L7.18799 9.7895H18.3689V34.1031H15.7159C14.1282 34.1031 12.8409 35.3905 12.8409 36.9782H27.1593C27.1593 35.3905 25.8721 34.1033 24.2844 34.1033Z" fill="white"/>
<path d="M6.43635 25.6936C3.27393 25.6936 0.690111 23.1641 0.602306 20.0225H12.2704C12.1826 23.1641 9.59869 25.6936 6.43635 25.6936Z" stroke="white" stroke-width="1.2"/>
<path d="M33.5639 25.6936C30.4014 25.6936 27.8176 23.1641 27.7297 20.0225H39.3978C39.31 23.1641 36.7262 25.6936 33.5639 25.6936Z" stroke="white" stroke-width="1.2"/>
</g>
<defs>
<clipPath id="clip0_6_149">
<rect width="40" height="40" fill="white"/>
</clipPath>
</defs>
</svg>
